<mxfile host="Electron" agent="Mozilla/5.0 (Windows NT 10.0; Win64; x64) AppleWebKit/537.36 (KHTML, like Gecko) draw.io/28.0.6 Chrome/138.0.7204.100 Electron/37.2.3 Safari/537.36" version="28.0.6">
  <diagram name="第 1 页" id="86hpjMbtCsUoQH4bLpdN">
    <mxGraphModel dx="3582" dy="1603" grid="1" gridSize="10" guides="1" tooltips="1" connect="1" arrows="1" fold="1" page="1" pageScale="1" pageWidth="827" pageHeight="1169" math="0" shadow="0">
      <root>
        <mxCell id="0" />
        <mxCell id="1" parent="0" />
        <mxCell id="BViU9b3A2xDf2ouNcxfW-2" value="&lt;font style=&quot;font-size: 24px;&quot;&gt;&lt;b&gt;游戏运行云服&lt;/b&gt;&lt;/font&gt;" style="ellipse;shape=cloud;whiteSpace=wrap;html=1;" vertex="1" parent="1">
          <mxGeometry x="-680" y="585" width="240" height="160" as="geometry" />
        </mxCell>
        <mxCell id="BViU9b3A2xDf2ouNcxfW-3" value="&lt;span style=&quot;font-size: 24px;&quot;&gt;&lt;b&gt;云存储服&lt;/b&gt;&lt;/span&gt;" style="ellipse;shape=cloud;whiteSpace=wrap;html=1;" vertex="1" parent="1">
          <mxGeometry x="-230" y="190" width="240" height="160" as="geometry" />
        </mxCell>
        <mxCell id="BViU9b3A2xDf2ouNcxfW-4" value="&lt;font style=&quot;font-size: 24px;&quot;&gt;&lt;b&gt;游戏运行云服&lt;/b&gt;&lt;/font&gt;" style="ellipse;shape=cloud;whiteSpace=wrap;html=1;" vertex="1" parent="1">
          <mxGeometry x="-220" y="585" width="240" height="160" as="geometry" />
        </mxCell>
        <mxCell id="BViU9b3A2xDf2ouNcxfW-8" value="&lt;font style=&quot;font-size: 24px;&quot;&gt;&lt;b&gt;游戏运行云服&lt;/b&gt;&lt;/font&gt;" style="ellipse;shape=cloud;whiteSpace=wrap;html=1;" vertex="1" parent="1">
          <mxGeometry x="174" y="580" width="240" height="160" as="geometry" />
        </mxCell>
        <mxCell id="BViU9b3A2xDf2ouNcxfW-13" value="&lt;font&gt;&lt;b&gt;Pull（&lt;font style=&quot;color: rgb(204, 0, 0);&quot;&gt;模拟同步&lt;/font&gt;）&lt;/b&gt;&lt;/font&gt;" style="text;html=1;align=center;verticalAlign=middle;whiteSpace=wrap;rounded=0;fontSize=26;" vertex="1" parent="1">
          <mxGeometry x="-340" y="470" width="135" height="90" as="geometry" />
        </mxCell>
        <mxCell id="BViU9b3A2xDf2ouNcxfW-17" value="" style="endArrow=classic;startArrow=classic;html=1;rounded=0;strokeWidth=5;" edge="1" parent="1" source="BViU9b3A2xDf2ouNcxfW-2" target="BViU9b3A2xDf2ouNcxfW-3">
          <mxGeometry width="100" height="100" relative="1" as="geometry">
            <mxPoint x="-513" y="500" as="sourcePoint" />
            <mxPoint x="-413" y="400" as="targetPoint" />
          </mxGeometry>
        </mxCell>
        <mxCell id="BViU9b3A2xDf2ouNcxfW-18" value="" style="endArrow=classic;startArrow=classic;html=1;rounded=0;strokeWidth=5;" edge="1" parent="1" source="BViU9b3A2xDf2ouNcxfW-4" target="BViU9b3A2xDf2ouNcxfW-3">
          <mxGeometry width="100" height="100" relative="1" as="geometry">
            <mxPoint x="-250" y="657" as="sourcePoint" />
            <mxPoint x="54" y="390" as="targetPoint" />
          </mxGeometry>
        </mxCell>
        <mxCell id="BViU9b3A2xDf2ouNcxfW-19" value="" style="endArrow=classic;startArrow=classic;html=1;rounded=0;strokeWidth=5;entryX=0.768;entryY=0.846;entryDx=0;entryDy=0;entryPerimeter=0;" edge="1" parent="1" source="BViU9b3A2xDf2ouNcxfW-8" target="BViU9b3A2xDf2ouNcxfW-3">
          <mxGeometry width="100" height="100" relative="1" as="geometry">
            <mxPoint x="16" y="775" as="sourcePoint" />
            <mxPoint x="10" y="540" as="targetPoint" />
          </mxGeometry>
        </mxCell>
        <mxCell id="BViU9b3A2xDf2ouNcxfW-20" value="" style="endArrow=classic;html=1;rounded=0;strokeWidth=5;" edge="1" parent="1" source="BViU9b3A2xDf2ouNcxfW-2">
          <mxGeometry width="50" height="50" relative="1" as="geometry">
            <mxPoint x="-630" y="820" as="sourcePoint" />
            <mxPoint x="-560" y="870" as="targetPoint" />
          </mxGeometry>
        </mxCell>
        <mxCell id="BViU9b3A2xDf2ouNcxfW-22" value="&lt;span style=&quot;font-size: 16px;&quot;&gt;&lt;b&gt;获取到了CloudData&lt;/b&gt;&lt;/span&gt;" style="text;html=1;align=center;verticalAlign=middle;whiteSpace=wrap;rounded=0;" vertex="1" parent="1">
          <mxGeometry x="-530" y="770" width="90" height="60" as="geometry" />
        </mxCell>
        <mxCell id="BViU9b3A2xDf2ouNcxfW-24" value="&lt;b&gt;&lt;font style=&quot;font-size: 16px;&quot;&gt;LocalData与CloudData&lt;/font&gt;&lt;/b&gt;&lt;div&gt;&lt;b&gt;&lt;font style=&quot;font-size: 16px;&quot;&gt;时间戳对比，是否相同&lt;/font&gt;&lt;/b&gt;&lt;/div&gt;" style="rhombus;whiteSpace=wrap;html=1;" vertex="1" parent="1">
          <mxGeometry x="-700" y="880" width="280" height="180" as="geometry" />
        </mxCell>
        <mxCell id="BViU9b3A2xDf2ouNcxfW-26" value="" style="endArrow=classic;html=1;rounded=0;strokeWidth=5;" edge="1" parent="1">
          <mxGeometry width="50" height="50" relative="1" as="geometry">
            <mxPoint x="-560.5" y="1070" as="sourcePoint" />
            <mxPoint x="-560.5" y="1195" as="targetPoint" />
          </mxGeometry>
        </mxCell>
        <mxCell id="BViU9b3A2xDf2ouNcxfW-27" value="" style="endArrow=classic;html=1;rounded=0;strokeWidth=5;exitX=1;exitY=0.5;exitDx=0;exitDy=0;" edge="1" parent="1" source="BViU9b3A2xDf2ouNcxfW-24" target="BViU9b3A2xDf2ouNcxfW-28">
          <mxGeometry width="50" height="50" relative="1" as="geometry">
            <mxPoint x="-390" y="960" as="sourcePoint" />
            <mxPoint x="-200" y="970" as="targetPoint" />
          </mxGeometry>
        </mxCell>
        <mxCell id="BViU9b3A2xDf2ouNcxfW-28" value="&lt;b&gt;&lt;font style=&quot;font-size: 23px;&quot;&gt;不进行本次上传&lt;/font&gt;&lt;/b&gt;" style="rounded=1;whiteSpace=wrap;html=1;" vertex="1" parent="1">
          <mxGeometry x="-250" y="920" width="200" height="100" as="geometry" />
        </mxCell>
        <mxCell id="BViU9b3A2xDf2ouNcxfW-29" value="&lt;span style=&quot;font-size: 16px;&quot;&gt;&lt;b&gt;相同&lt;/b&gt;&lt;/span&gt;" style="text;html=1;align=center;verticalAlign=middle;whiteSpace=wrap;rounded=0;" vertex="1" parent="1">
          <mxGeometry x="-400" y="890" width="90" height="60" as="geometry" />
        </mxCell>
        <mxCell id="BViU9b3A2xDf2ouNcxfW-30" value="&lt;span style=&quot;font-size: 16px;&quot;&gt;&lt;b&gt;不相同&lt;/b&gt;&lt;/span&gt;" style="text;html=1;align=center;verticalAlign=middle;whiteSpace=wrap;rounded=0;" vertex="1" parent="1">
          <mxGeometry x="-670" y="1080" width="90" height="60" as="geometry" />
        </mxCell>
        <mxCell id="BViU9b3A2xDf2ouNcxfW-33" value="&lt;b&gt;&lt;font style=&quot;font-size: 16px;&quot;&gt;LocalData与CloudData&lt;/font&gt;&lt;/b&gt;&lt;div&gt;&lt;b&gt;&lt;font style=&quot;font-size: 16px;&quot;&gt;云服ID对比，是否相同&lt;/font&gt;&lt;/b&gt;&lt;/div&gt;" style="rhombus;whiteSpace=wrap;html=1;" vertex="1" parent="1">
          <mxGeometry x="-700" y="1200" width="280" height="180" as="geometry" />
        </mxCell>
        <mxCell id="BViU9b3A2xDf2ouNcxfW-34" value="" style="endArrow=classic;html=1;rounded=0;strokeWidth=5;exitX=1;exitY=0.5;exitDx=0;exitDy=0;" edge="1" parent="1" source="BViU9b3A2xDf2ouNcxfW-33">
          <mxGeometry width="50" height="50" relative="1" as="geometry">
            <mxPoint x="-270" y="1290" as="sourcePoint" />
            <mxPoint x="-260" y="1290" as="targetPoint" />
          </mxGeometry>
        </mxCell>
        <mxCell id="BViU9b3A2xDf2ouNcxfW-35" value="&lt;b style=&quot;&quot;&gt;&lt;font style=&quot;font-size: 17px;&quot;&gt;本地数据进行排序&lt;/font&gt;&lt;/b&gt;&lt;div&gt;&lt;b style=&quot;&quot;&gt;&lt;font style=&quot;font-size: 17px;&quot;&gt;并存储&lt;/font&gt;&lt;/b&gt;&lt;/div&gt;" style="rounded=1;whiteSpace=wrap;html=1;" vertex="1" parent="1">
          <mxGeometry x="-250" y="1240" width="200" height="100" as="geometry" />
        </mxCell>
        <mxCell id="BViU9b3A2xDf2ouNcxfW-36" value="&lt;span style=&quot;font-size: 16px;&quot;&gt;&lt;b&gt;相同&lt;/b&gt;&lt;/span&gt;" style="text;html=1;align=center;verticalAlign=middle;whiteSpace=wrap;rounded=0;" vertex="1" parent="1">
          <mxGeometry x="-400" y="1210" width="90" height="60" as="geometry" />
        </mxCell>
        <mxCell id="BViU9b3A2xDf2ouNcxfW-37" value="" style="endArrow=classic;html=1;rounded=0;strokeWidth=5;exitX=0.5;exitY=1;exitDx=0;exitDy=0;" edge="1" parent="1" source="BViU9b3A2xDf2ouNcxfW-35">
          <mxGeometry width="50" height="50" relative="1" as="geometry">
            <mxPoint x="-230" y="1480" as="sourcePoint" />
            <mxPoint x="-150" y="1480" as="targetPoint" />
          </mxGeometry>
        </mxCell>
        <mxCell id="BViU9b3A2xDf2ouNcxfW-38" value="&lt;span style=&quot;font-size: 17px;&quot;&gt;&lt;b&gt;SortData-&amp;gt;客户端&lt;/b&gt;&lt;/span&gt;&lt;div&gt;&lt;span style=&quot;font-size: 17px;&quot;&gt;&lt;b&gt;LocalData-&amp;gt;上传&lt;/b&gt;&lt;/span&gt;&lt;/div&gt;" style="rounded=1;whiteSpace=wrap;html=1;" vertex="1" parent="1">
          <mxGeometry x="-250" y="1480" width="200" height="100" as="geometry" />
        </mxCell>
        <mxCell id="BViU9b3A2xDf2ouNcxfW-39" value="" style="endArrow=classic;html=1;rounded=0;strokeWidth=5;" edge="1" parent="1">
          <mxGeometry width="50" height="50" relative="1" as="geometry">
            <mxPoint x="-560.5" y="1390" as="sourcePoint" />
            <mxPoint x="-560.5" y="1515" as="targetPoint" />
          </mxGeometry>
        </mxCell>
        <mxCell id="BViU9b3A2xDf2ouNcxfW-40" value="&lt;span style=&quot;font-size: 16px;&quot;&gt;&lt;b&gt;不相同&lt;/b&gt;&lt;/span&gt;" style="text;html=1;align=center;verticalAlign=middle;whiteSpace=wrap;rounded=0;" vertex="1" parent="1">
          <mxGeometry x="-670" y="1410" width="90" height="60" as="geometry" />
        </mxCell>
        <mxCell id="BViU9b3A2xDf2ouNcxfW-42" value="&lt;span style=&quot;font-size: 17px;&quot;&gt;&lt;b&gt;LocalData与CloudData进行Diff更新（以时间戳为准），应用Diff到TargetData&lt;/b&gt;&lt;/span&gt;" style="rounded=1;whiteSpace=wrap;html=1;spacing=2;" vertex="1" parent="1">
          <mxGeometry x="-660" y="1520" width="200" height="100" as="geometry" />
        </mxCell>
        <mxCell id="BViU9b3A2xDf2ouNcxfW-43" value="&lt;span&gt;&lt;b&gt;1.定时60秒上传&lt;/b&gt;&lt;/span&gt;" style="text;html=1;align=center;verticalAlign=middle;whiteSpace=wrap;rounded=0;strokeWidth=1;fontSize=45;" vertex="1" parent="1">
          <mxGeometry x="340" y="30" width="416" height="60" as="geometry" />
        </mxCell>
        <mxCell id="BViU9b3A2xDf2ouNcxfW-44" value="&lt;span&gt;&lt;b&gt;2.玩家进入场景&lt;/b&gt;&lt;/span&gt;" style="text;html=1;align=center;verticalAlign=middle;whiteSpace=wrap;rounded=0;strokeWidth=1;fontSize=45;" vertex="1" parent="1">
          <mxGeometry x="340" y="100" width="416" height="60" as="geometry" />
        </mxCell>
        <mxCell id="BViU9b3A2xDf2ouNcxfW-45" value="" style="endArrow=classic;html=1;rounded=0;strokeWidth=5;" edge="1" parent="1">
          <mxGeometry width="50" height="50" relative="1" as="geometry">
            <mxPoint x="-560.5" y="1629" as="sourcePoint" />
            <mxPoint x="-560.5" y="1754" as="targetPoint" />
          </mxGeometry>
        </mxCell>
        <mxCell id="BViU9b3A2xDf2ouNcxfW-46" value="&lt;span style=&quot;font-size: 17px;&quot;&gt;&lt;b&gt;将TargetData进行编码处理为排序格式&lt;/b&gt;&lt;/span&gt;" style="rounded=1;whiteSpace=wrap;html=1;" vertex="1" parent="1">
          <mxGeometry x="-660" y="1754" width="200" height="100" as="geometry" />
        </mxCell>
        <mxCell id="BViU9b3A2xDf2ouNcxfW-47" value="" style="endArrow=classic;html=1;rounded=0;strokeWidth=5;" edge="1" parent="1">
          <mxGeometry width="50" height="50" relative="1" as="geometry">
            <mxPoint x="-560.5" y="1860" as="sourcePoint" />
            <mxPoint x="-560.5" y="1985" as="targetPoint" />
          </mxGeometry>
        </mxCell>
        <mxCell id="BViU9b3A2xDf2ouNcxfW-48" value="&lt;span style=&quot;font-size: 17px;&quot;&gt;&lt;b&gt;SortData-&amp;gt;客户端&lt;/b&gt;&lt;/span&gt;&lt;div&gt;&lt;span style=&quot;font-size: 17px;&quot;&gt;&lt;b&gt;TargetData-&amp;gt;上传&lt;/b&gt;&lt;/span&gt;&lt;/div&gt;" style="rounded=1;whiteSpace=wrap;html=1;" vertex="1" parent="1">
          <mxGeometry x="-660" y="1990" width="200" height="100" as="geometry" />
        </mxCell>
        <mxCell id="BViU9b3A2xDf2ouNcxfW-49" value="&lt;span style=&quot;font-size: 23px;&quot;&gt;&lt;b&gt;玩家输入&lt;/b&gt;&lt;/span&gt;" style="shape=parallelogram;perimeter=parallelogramPerimeter;whiteSpace=wrap;html=1;fixedSize=1;" vertex="1" parent="1">
          <mxGeometry x="204" y="870" width="180" height="90" as="geometry" />
        </mxCell>
        <mxCell id="BViU9b3A2xDf2ouNcxfW-51" value="" style="endArrow=classic;html=1;rounded=0;strokeWidth=5;" edge="1" parent="1">
          <mxGeometry width="50" height="50" relative="1" as="geometry">
            <mxPoint x="300" y="737.5" as="sourcePoint" />
            <mxPoint x="300" y="862.5" as="targetPoint" />
          </mxGeometry>
        </mxCell>
        <mxCell id="BViU9b3A2xDf2ouNcxfW-52" value="" style="endArrow=classic;html=1;rounded=0;strokeWidth=5;" edge="1" parent="1">
          <mxGeometry width="50" height="50" relative="1" as="geometry">
            <mxPoint x="300" y="970" as="sourcePoint" />
            <mxPoint x="300" y="1095" as="targetPoint" />
          </mxGeometry>
        </mxCell>
        <mxCell id="BViU9b3A2xDf2ouNcxfW-53" value="&lt;span style=&quot;font-size: 23px;&quot;&gt;&lt;b&gt;InitData（工厂）对输入数据赋时间戳&lt;/b&gt;&lt;/span&gt;" style="rounded=1;whiteSpace=wrap;html=1;" vertex="1" parent="1">
          <mxGeometry x="204" y="1100" width="200" height="100" as="geometry" />
        </mxCell>
        <mxCell id="BViU9b3A2xDf2ouNcxfW-54" value="" style="endArrow=classic;html=1;rounded=0;strokeWidth=5;" edge="1" parent="1">
          <mxGeometry width="50" height="50" relative="1" as="geometry">
            <mxPoint x="303.33" y="1210" as="sourcePoint" />
            <mxPoint x="303.33" y="1335" as="targetPoint" />
          </mxGeometry>
        </mxCell>
        <mxCell id="BViU9b3A2xDf2ouNcxfW-55" value="&lt;span style=&quot;font-size: 23px;&quot;&gt;&lt;b&gt;直接用ID索引存入LocalData&lt;/b&gt;&lt;/span&gt;" style="rounded=1;whiteSpace=wrap;html=1;" vertex="1" parent="1">
          <mxGeometry x="204" y="1340" width="200" height="100" as="geometry" />
        </mxCell>
        <mxCell id="BViU9b3A2xDf2ouNcxfW-56" value="&lt;span&gt;&lt;b&gt;&lt;font style=&quot;font-size: 29px;&quot;&gt;1.LocalData（运行云服本地数据）&lt;/font&gt;&lt;/b&gt;&lt;/span&gt;" style="text;html=1;align=left;verticalAlign=middle;whiteSpace=wrap;rounded=0;strokeWidth=1;fontSize=45;" vertex="1" parent="1">
          <mxGeometry x="-800" y="30" width="480" height="60" as="geometry" />
        </mxCell>
        <mxCell id="BViU9b3A2xDf2ouNcxfW-57" value="&lt;span&gt;&lt;b&gt;&lt;font style=&quot;font-size: 29px;&quot;&gt;2.CloudData（云存储服数据）&lt;/font&gt;&lt;/b&gt;&lt;/span&gt;" style="text;html=1;align=left;verticalAlign=middle;whiteSpace=wrap;rounded=0;strokeWidth=1;fontSize=45;" vertex="1" parent="1">
          <mxGeometry x="-800" y="90" width="480" height="60" as="geometry" />
        </mxCell>
        <mxCell id="BViU9b3A2xDf2ouNcxfW-58" value="&lt;span&gt;&lt;b&gt;&lt;font style=&quot;font-size: 29px;&quot;&gt;3.TargetData（Diff目标\上传数据）&lt;/font&gt;&lt;/b&gt;&lt;/span&gt;" style="text;html=1;align=left;verticalAlign=middle;whiteSpace=wrap;rounded=0;strokeWidth=1;fontSize=45;" vertex="1" parent="1">
          <mxGeometry x="-800" y="150" width="480" height="60" as="geometry" />
        </mxCell>
        <mxCell id="BViU9b3A2xDf2ouNcxfW-59" value="&lt;span&gt;&lt;b&gt;&lt;font style=&quot;font-size: 29px;&quot;&gt;4.SortData（排序\渲染数据）&lt;/font&gt;&lt;/b&gt;&lt;/span&gt;" style="text;html=1;align=left;verticalAlign=middle;whiteSpace=wrap;rounded=0;strokeWidth=1;fontSize=45;" vertex="1" parent="1">
          <mxGeometry x="-800" y="210" width="480" height="60" as="geometry" />
        </mxCell>
      </root>
    </mxGraphModel>
  </diagram>
</mxfile>
